<?xml version="1.0" encoding="UTF-8"?>
<svg width="63px" height="68px" viewBox="0 0 63 68" version="1.1" xmlns="http://www.w3.org/2000/svg" xmlns:xlink="http://www.w3.org/1999/xlink">
    <!-- Generator: sketchtool 41.1 (35376) - http://www.bohemiancoding.com/sketch -->
    <title>BA1677FD-55C1-40D8-83D8-1CF7034E9487</title>
    <desc>Created with sketchtool.</desc>
    <defs></defs>
    <g id="Home-Page" stroke="none" stroke-width="1" fill="none" fill-rule="evenodd">
        <g id="Web-1366-v1--click" transform="translate(-894.000000, -1276.000000)">
            <g id="Item" transform="translate(697.000000, 1236.000000)">
                <rect id="Rectangle-5" fill="#F9FBFD" opacity="0" x="0" y="0" width="457" height="280"></rect>
                <g id="Icon" transform="translate(197.000000, 40.000000)">
                    <path d="M20.5812416,38.9433992 C28.8319366,38.9433992 35.5455484,32.2327548 35.5455484,23.9820598 C35.5455484,15.7328484 28.8319366,9.02072033 20.5812416,9.02072033 C12.3305466,9.02072033 5.61990218,15.7328484 5.61990218,23.9820598 C5.61990218,32.2327548 12.3305466,38.9433992 20.5812416,38.9433992 L20.5812416,38.9433992 Z M20.5812416,11.246227 C27.6049406,11.246227 33.3200417,16.9598444 33.3200417,23.9820598 C33.3200417,31.0057588 27.6049406,36.7178925 20.5812416,36.7178925 C13.5575426,36.7178925 7.84540884,31.0057588 7.84540884,23.9820598 C7.84540884,16.9598444 13.5575426,11.246227 20.5812416,11.246227 L20.5812416,11.246227 Z M36.0514802,46.6748093 C32.1612946,40.1956176 23.9981362,41.0101531 23.7711345,41.0427938 L17.137641,41.0427938 C16.8631618,41.0472448 10.2682438,40.8617859 6.40624786,46.4151669 C4.26679413,49.4937844 1.13031341,61.2414923 0.0279457788,66.1272212 C-0.108551963,66.7266243 0.268300498,67.3215765 0.867703625,67.4565905 C1.46859042,67.5960556 2.06354254,67.2162358 2.19707294,66.6168327 C3.3543364,61.4922327 6.41069888,50.3098035 8.23413067,47.6851894 C11.3898991,43.1481231 17.0055942,43.2668168 17.0975819,43.2683005 L23.8927955,43.2608821 C23.9654954,43.2534638 31.0218352,42.5472363 34.1746363,47.8706482 C34.1998587,47.9136747 34.2280485,47.9567012 34.2592055,47.9952766 C36.1909453,50.4359156 39.426832,61.4165654 40.6197036,66.6212837 C40.7383973,67.1346339 41.1968516,67.4847803 41.7042672,67.4847803 C41.7858691,67.4847803 41.8704383,67.4758782 41.9535239,67.4565905 C42.552927,67.3186091 42.9268121,66.7221733 42.7888307,66.1227702 C41.8526343,62.0382236 38.5306947,49.906245 36.0514802,46.6748093 L36.0514802,46.6748093 Z" id="Fill-89" fill="#2D3139"></path>
                    <path d="M50.8184588,0 C44.1018797,0 38.6360353,4.51332751 38.6360353,10.0622574 C38.6360353,15.6111874 44.1018797,20.1259986 50.8184588,20.1259986 C57.5365215,20.1259986 63.0008822,15.6111874 63.0008822,10.0622574 C63.0008822,4.51332751 57.5365215,0 50.8184588,0 Z M50.8184588,17.9004919 C45.3288757,17.9004919 40.861542,14.3841914 40.861542,10.0622574 C40.861542,5.74180718 45.3288757,2.22550666 50.8184588,2.22550666 C56.3095255,2.22550666 60.7753756,5.74180718 60.7753756,10.0622574 C60.7753756,14.3841914 56.3095255,17.9004919 50.8184588,17.9004919 Z M42.7917981,20.4509225 C40.0633269,20.4509225 37.8452386,22.3396358 37.8452386,24.6600975 C37.8452386,26.9835264 40.0633269,28.8737234 42.7917981,28.8737234 C45.5202692,28.8737234 47.7398412,26.9835264 47.7398412,24.6600975 C47.7398412,22.3396358 45.5202692,20.4509225 42.7917981,20.4509225 Z M42.7917981,26.6482167 C41.317029,26.6482167 40.0707453,25.7387264 40.0707453,24.6600975 C40.0707453,23.5844359 41.317029,22.6764292 42.7917981,22.6764292 C44.2680508,22.6764292 45.5143346,23.5844359 45.5143346,24.6600975 C45.5143346,25.7387264 44.2680508,26.6482167 42.7917981,26.6482167 Z" id="Combined-Shape" fill="#2CD992"></path>
                </g>
            </g>
        </g>
    </g>
</svg>