<?xml version="1.0" encoding="UTF-8"?>
<svg width="32px" height="33px" viewBox="0 0 32 33" version="1.1" xmlns="http://www.w3.org/2000/svg" xmlns:xlink="http://www.w3.org/1999/xlink">
    <!-- Generator: sketchtool 41.1 (35376) - http://www.bohemiancoding.com/sketch -->
    <title>6A88C4CB-D398-48CE-8323-C4E63780E119</title>
    <desc>Created with sketchtool.</desc>
    <defs>
        <circle id="path-1" cx="34" cy="34" r="34"></circle>
        <mask id="mask-2" maskContentUnits="userSpaceOnUse" maskUnits="objectBoundingBox" x="0" y="0" width="68" height="68" fill="white">
            <use xlink:href="#path-1"></use>
        </mask>
    </defs>
    <g id="Home-Page" stroke="none" stroke-width="1" fill="none" fill-rule="evenodd">
        <g id="Web-1366-v1--click" transform="translate(-143.000000, -1922.000000)">
            <g id="Why-Blockchain" transform="translate(0.000000, 1566.000000)">
                <rect id="Bg" opacity="0.799999952" x="0" y="0" width="1366" height="770"></rect>
                <g id="Peer-to-peer" transform="translate(125.000000, 338.000000)">
                    <g id="Icon">
                        <use id="Oval-2" stroke="#ABBCBF" mask="url(#mask-2)" stroke-width="4" opacity="0.182952425" xlink:href="#path-1"></use>
                        <path d="M43.5903492,38.7870924 C41.9519817,38.7870924 40.4838801,39.5214922 39.4905447,40.6750442 L31.6406519,35.1299367 C32.2538916,34.1078557 32.6127923,32.9168415 32.6127923,31.6403005 C32.6127923,30.7885664 32.4488849,29.9771217 32.162047,29.2243442 L39.4799472,25.8697132 C40.2719309,27.2586407 41.7633469,28.1994359 43.4730707,28.1994359 C46.0079834,28.1994359 48.0709559,26.1354825 48.0709559,23.5986577 C48.0709559,21.0632465 46.0079834,19 43.4730707,19 C40.9381579,19 38.8751855,21.0632465 38.8751855,23.5986577 C38.8751855,24.0482037 38.9430092,24.4829062 39.0638203,24.89499 L31.7098886,28.2658782 C30.5349834,26.218182 28.3314179,24.8320818 25.8056897,24.8320818 C22.0527754,24.8320818 19,27.8863087 19,31.6403005 C19,35.395706 22.0527754,38.4506397 25.8056897,38.4506397 C27.903987,38.4506397 29.7818571,37.495001 31.0316511,35.997928 L38.8801309,41.5416219 C38.4350376,42.3276205 38.177166,43.2330741 38.177166,44.1986084 C38.177166,47.1842724 40.6053976,49.6122449 43.5903492,49.6122449 C46.5738879,49.6122449 49,47.1842724 49,44.1986084 C49,41.214358 46.5738879,38.7870924 43.5903492,38.7870924 L43.5903492,38.7870924 Z M43.4730707,20.06025 C45.4237101,20.06025 47.0112098,21.6470908 47.0112098,23.5986577 C47.0112098,25.5509313 45.4237101,27.1391859 43.4730707,27.1391859 C41.5224313,27.1391859 39.9349316,25.5509313 39.9349316,23.5986577 C39.9349316,21.6470908 41.5224313,20.06025 43.4730707,20.06025 L43.4730707,20.06025 Z M25.8056897,37.3903897 C22.6370487,37.3903897 20.0597461,34.8111549 20.0597461,31.6403005 C20.0597461,28.4708599 22.6370487,25.8923318 25.8056897,25.8923318 C28.9750371,25.8923318 31.5530462,28.4708599 31.5530462,31.6403005 C31.5530462,34.8111549 28.9750371,37.3903897 25.8056897,37.3903897 L25.8056897,37.3903897 Z M43.5903492,48.5519949 C41.189671,48.5519949 39.2369121,46.5990144 39.2369121,44.1986084 C39.2369121,41.799616 41.189671,39.8473424 43.5903492,39.8473424 C45.988908,39.8473424 47.9402539,41.799616 47.9402539,44.1986084 C47.9402539,46.5990144 45.988908,48.5519949 43.5903492,48.5519949 L43.5903492,48.5519949 Z" id="Fill-181" stroke="#2CD992" fill="#2CD992"></path>
                    </g>
                </g>
            </g>
        </g>
    </g>
</svg>