<?xml version="1.0" encoding="UTF-8"?>
<svg width="26px" height="33px" viewBox="0 0 26 33" version="1.1" xmlns="http://www.w3.org/2000/svg" xmlns:xlink="http://www.w3.org/1999/xlink">
    <!-- Generator: sketchtool 41.1 (35376) - http://www.bohemiancoding.com/sketch -->
    <title>A308A407-C818-4923-85BB-5CF157B4550A</title>
    <desc>Created with sketchtool.</desc>
    <defs>
        <circle id="path-1" cx="34" cy="34" r="34"></circle>
        <mask id="mask-2" maskContentUnits="userSpaceOnUse" maskUnits="objectBoundingBox" x="0" y="0" width="68" height="68" fill="white">
            <use xlink:href="#path-1"></use>
        </mask>
    </defs>
    <g id="Home-Page" stroke="none" stroke-width="1" fill="none" fill-rule="evenodd">
        <g id="Web-1366-v1--click" transform="translate(-731.000000, -1921.000000)">
            <g id="Why-Blockchain" transform="translate(0.000000, 1566.000000)">
                <rect id="Bg" opacity="0.799999952" x="0" y="0" width="1366" height="770"></rect>
                <g id="Security" transform="translate(710.000000, 338.000000)">
                    <g id="Icon">
                        <use id="Oval-2" stroke="#ABBCBF" mask="url(#mask-2)" stroke-width="4" opacity="0.182952425" xlink:href="#path-1"></use>
                        <path d="M42.5782507,30.2593993 L25.3138384,30.2633569 C23.4247395,30.5027923 22,32.1128798 22,34.0085748 L22,45.2072908 C22,47.2988875 23.7011125,49 25.7927092,49 L42.1659997,49 C44.254958,49 45.9554109,47.2988875 45.9554109,45.2072908 L45.9554109,34.0085748 C45.9554109,32.1128798 44.5300119,30.5021327 42.5782507,30.2593993 L42.5782507,30.2593993 Z M44.9660085,45.2072908 C44.9660085,46.7533969 43.7088079,48.0105976 42.1659997,48.0105976 L25.7927092,48.0105976 C24.2466031,48.0105976 22.9894024,46.7533969 22.9894024,45.2072908 L22.9894024,34.0085748 C22.9894024,32.6102194 24.0421266,31.4222769 25.3765006,31.2488017 L42.5162482,31.2448441 C43.9126248,31.4216173 44.9660085,32.6102194 44.9660085,34.0085748 L44.9660085,45.2072908 L44.9660085,45.2072908 Z M25.3652874,28.0615628 C25.6370432,28.0767337 25.8652654,27.8518095 25.8718614,27.5774152 C25.9628864,23.5235038 29.4488809,18.9894024 33.9783651,18.9894024 C38.5104877,18.9894024 41.9951629,23.5235038 42.0835495,27.5774152 C42.0881667,27.8471923 42.3084737,28.0615628 42.5782507,28.0615628 L42.5881448,28.0615628 C42.8612198,28.0556264 43.0775691,27.8287235 43.0729519,27.5556484 C42.9733521,23.0360582 39.2156018,18 33.9783651,18 C28.7457456,18 24.9840376,23.0360582 24.882459,27.5556484 C24.875863,27.8287235 25.0922123,28.0549668 25.3652874,28.0615628 L25.3652874,28.0615628 Z" id="Fill-96" stroke="#2CD992" fill="#2CD992"></path>
                    </g>
                </g>
            </g>
        </g>
    </g>
</svg>