<?xml version="1.0" encoding="UTF-8"?>
<svg width="70px" height="63px" viewBox="0 0 70 63" version="1.1" xmlns="http://www.w3.org/2000/svg" xmlns:xlink="http://www.w3.org/1999/xlink">
    <!-- Generator: sketchtool 41.1 (35376) - http://www.bohemiancoding.com/sketch -->
    <title>0FA11855-B1E3-434E-ADAE-897E961B7DBB</title>
    <desc>Created with sketchtool.</desc>
    <defs></defs>
    <g id="Home-Page" stroke="none" stroke-width="1" fill="none" fill-rule="evenodd">
        <g id="Web-1366-v1--click" transform="translate(-891.000000, -980.000000)">
            <rect id="Rectangle-5" fill="#F9FBFD" opacity="0" x="697" y="926" width="457" height="280"></rect>
            <g id="Group-4" transform="translate(891.000000, 980.000000)">
                <path d="M26.0016956,47.6118032 L13.4648989,60.0233144 C12.9802416,60.5030262 12.9769446,61.2860608 13.4566564,61.770718 C13.698985,62.0163436 14.0171443,62.1383322 14.3353037,62.1383322 C14.650166,62.1383322 14.9650284,62.0196406 15.2057085,61.780609 L27.7408567,49.3707463 C28.2271625,48.8893861 28.2304595,48.1063514 27.7490992,47.6200457 C27.267739,47.1353885 26.4863528,47.13374 26.0016956,47.6118032 L26.0016956,47.6118032 Z M44.0065469,47.6118032 C43.5218896,47.13374 42.738855,47.1353885 42.2591433,47.6200457 C41.777783,48.1063514 41.78108,48.8893861 42.2673857,49.3690978 L54.79594,61.7789605 C55.0382686,62.0196406 55.3514825,62.1383322 55.6663448,62.1383322 C55.9845042,62.1383322 56.3026635,62.0163436 56.5449921,61.770718 C57.0247039,61.2860608 57.0214069,60.5046747 56.5367496,60.0233144 L44.0065469,47.6118032 L44.0065469,47.6118032 Z M68.7636295,42.4470716 L63.2774415,42.4470716 L63.2774415,2.47274097 L68.7636295,2.47274097 C69.446106,2.47274097 70,1.918847 70,1.23637049 C70,0.553893978 69.446106,0 68.7636295,0 L1.23637049,0 C0.553893978,0 0,0.553893978 0,1.23637049 C0,1.918847 0.553893978,2.47274097 1.23637049,2.47274097 L6.72585545,2.47274097 L6.72585545,42.4470716 L1.23637049,42.4470716 C0.553893978,42.4470716 0,43.0009655 0,43.6834421 C0,44.3659186 0.553893978,44.9198125 1.23637049,44.9198125 L68.7636295,44.9198125 C69.446106,44.9198125 70,44.3659186 70,43.6834421 C70,43.0009655 69.446106,42.4470716 68.7636295,42.4470716 L68.7636295,42.4470716 Z M9.19859643,2.47274097 L60.8047006,2.47274097 L60.8047006,42.4470716 L9.19859643,42.4470716 L9.19859643,2.47274097 Z" id="Fill-169" fill="#323257"></path>
                <path d="M17.0025669,30.7394673 C17.3190778,30.7394673 17.6355886,30.6191272 17.8762688,30.3767986 L29.4355086,18.8175588 L38.0324047,27.4161034 C38.2648423,27.6468926 38.5780562,27.7771236 38.907755,27.7771236 C39.2341568,27.7771236 39.5490191,27.6468926 39.7814568,27.4161034 L53.8744319,13.3231284 C54.3574406,12.8401196 54.3574406,12.057085 53.8744319,11.5740763 C53.3914231,11.0910675 52.610037,11.0910675 52.1270282,11.5740763 L38.907755,24.7933495 L30.3108589,16.1948049 C30.0784212,15.9623672 29.7635589,15.8321362 29.4355086,15.8321362 C29.1091068,15.8321362 28.7942444,15.9623672 28.5618067,16.1948049 L16.1288651,28.629395 C15.6458564,29.1124037 15.6458564,29.8937899 16.1288651,30.3767986 C16.3695453,30.6191272 16.6860561,30.7394673 17.0025669,30.7394673 L17.0025669,30.7394673 Z" id="Path" fill="#2CD992"></path>
            </g>
        </g>
    </g>
</svg>