<?xml version="1.0" encoding="UTF-8"?>
<svg width="76px" height="62px" viewBox="0 0 76 62" version="1.1" xmlns="http://www.w3.org/2000/svg" xmlns:xlink="http://www.w3.org/1999/xlink">
    <!-- Generator: sketchtool 41.1 (35376) - http://www.bohemiancoding.com/sketch -->
    <title>08F6A7F5-CE4D-4CB7-B44A-73365DDC74C1</title>
    <desc>Created with sketchtool.</desc>
    <defs></defs>
    <g id="Home-Page" stroke="none" stroke-width="1" fill="none" fill-rule="evenodd">
        <g id="Web-1366-v1--click" transform="translate(-400.000000, -1280.000000)">
            <g id="Item" transform="translate(210.000000, 1236.000000)">
                <rect id="Rectangle-5" fill="#F9FBFD" opacity="0" x="0" y="0" width="457" height="280"></rect>
                <g id="Group-4" transform="translate(190.000000, 44.000000)">
                    <path d="M61.5855024,25.9762729 C59.4460682,25.9762729 57.4416613,25.2591273 55.7868254,23.902852 C55.3082282,23.5082719 54.5970839,23.5772859 54.2040041,24.0588837 C53.809424,24.5389811 53.8799383,25.2486252 54.3600358,25.6432053 C56.3914481,27.3085433 58.9569689,28.2267297 61.5855024,28.2267297 C67.8882818,28.2267297 73.0148225,23.1016894 73.0148225,16.8019106 C73.0148225,10.5036321 67.8882818,5.38009209 61.5855024,5.38009209 C58.9539683,5.38009209 56.3884475,6.29677817 54.3585355,7.96211621 C53.8799383,8.355196 53.809424,9.06484005 54.2040041,9.54493751 C54.5970839,10.025035 55.3082282,10.0955493 55.7883257,9.70246948 C57.4146558,8.36569814 59.474574,7.63054891 61.5855024,7.63054891 C66.6460297,7.63054891 70.7643656,11.744384 70.7643656,16.8019106 C70.7643656,21.8609375 66.6460297,25.9762729 61.5855024,25.9762729 L61.5855024,25.9762729 Z M14.4099264,28.2267297 C17.0399602,28.2267297 19.6084816,27.3085433 21.639894,25.6432053 C22.1199914,25.2486252 22.1905057,24.5389811 21.7959256,24.0588837 C21.4013455,23.5772859 20.6932018,23.5082719 20.2131043,23.902852 C18.5582684,25.2591273 16.5523613,25.9762729 14.4099264,25.9762729 C9.34939915,25.9762729 5.23256348,21.8609375 5.23256348,16.8019106 C5.23256348,11.744384 9.34939915,7.63054891 14.4099264,7.63054891 C16.5523613,7.63054891 18.5567681,8.34619418 20.2071031,9.70246948 C20.6887009,10.0955493 21.3983449,10.025035 21.7914247,9.54493751 C22.1860048,9.06484005 22.1154905,8.355196 21.6353931,7.96211621 C19.6069813,6.29677817 17.0399602,5.38009209 14.4099264,5.38009209 C8.10864729,5.38009209 2.98210667,10.5036321 2.98210667,16.8019106 C2.98210667,23.1016894 8.10864729,28.2267297 14.4099264,28.2267297 L14.4099264,28.2267297 Z M75.973423,44.0309377 C74.7746797,38.6238402 73.5639339,35.017108 72.3756927,33.3082612 C69.4200928,29.0518972 64.3535643,29.183924 64.1810293,29.1884249 L59.3440475,29.1959264 C59.0994978,29.1629197 53.2918189,28.5868028 50.1801873,32.9901966 C49.8216145,33.4972995 49.9431392,34.2009424 50.4502421,34.5580149 C50.9558448,34.9150873 51.6594876,34.7965633 52.0180604,34.28796 C54.3540345,30.9797885 59.0529884,31.4238787 59.2210225,31.4388817 L64.2215375,31.4388817 C64.2605454,31.4103759 68.263358,31.3308598 70.5288178,34.5925219 C71.22946,35.6007265 72.36219,38.1422424 73.7754769,44.5170364 C73.8925006,45.0406427 74.357595,45.3992155 74.8736998,45.3992155 C74.9547162,45.3992155 75.0357327,45.3902137 75.1167491,45.37221 C75.7243725,45.2371826 76.1069501,44.6370608 75.973423,44.0309377 L75.973423,44.0309377 Z M24.2519242,34.7110459 C24.5699887,35.2481549 25.2586285,35.4251909 25.7927369,35.105626 C26.3283457,34.7890618 26.5053816,34.0989217 26.1888173,33.5648132 C23.2122131,28.5402933 16.9199359,29.1659203 16.7759066,29.1884249 L11.8579083,29.1884249 C11.6538669,29.1884249 6.57833666,29.0473963 3.6212364,33.3082612 C2.42699399,35.0261099 1.21774852,38.6343423 0.0265067154,44.0309377 C-0.107020389,44.6385611 0.277057574,45.2386829 0.88318061,45.37221 C0.96569736,45.3902137 1.04671381,45.3992155 1.12622995,45.3992155 C1.64233471,45.3992155 2.10892942,45.0406427 2.22445287,44.5155361 C3.31967519,39.5510284 4.47190908,36.026813 5.4696116,34.5925219 C7.71256689,31.3593656 11.6088578,31.4388817 11.8189004,31.4388817 L16.8944307,31.4328805 C16.9469414,31.4268793 22.0224716,30.9467818 24.2519242,34.7110459 L24.2519242,34.7110459 Z" id="Fill-92" fill="#2D3139"></path>
                    <path d="M54.1784989,39.4385055 C50.1141739,32.6646305 41.581942,33.5123026 41.3403929,33.5483099 L34.389482,33.5483099 C34.0834199,33.5423087 27.2180263,33.3622721 23.1837073,39.1609492 C20.9467533,42.3686003 17.6610863,54.6770988 16.5058518,59.7991385 C16.3678238,60.4067618 16.7489012,61.008384 17.3550242,61.1449117 C17.9611472,61.28444 18.5627694,60.9018623 18.6992971,60.294239 C19.9145437,54.9156472 23.1191943,43.1892669 25.0305822,40.4482105 C28.3492559,35.677242 34.2649567,35.8092688 34.3504741,35.7987667 L41.4604173,35.7927655 C41.5354325,35.7837637 48.9784434,35.0681184 52.2806137,40.647751 C52.3061188,40.6912598 52.3346246,40.7332684 52.366131,40.7737766 C54.3930425,43.3317958 57.7867313,54.8451329 59.036485,60.2987399 C59.1565094,60.8193456 59.6201035,61.1719172 60.1332076,61.1719172 C60.2157244,61.1719172 60.2997414,61.1629153 60.3852588,61.1449117 C60.9898815,61.0053834 61.3694586,60.4022609 61.2299303,59.7946376 C60.2487311,55.5172693 56.7710252,42.8126905 54.1784989,39.4385055 Z M37.9992147,31.2723479 C46.6229652,31.2723479 53.6398896,24.2569239 53.6398896,15.6331733 C53.6398896,7.01392374 46.6229652,0 37.9992147,0 C29.3799651,0 22.3675417,7.01392374 22.3675417,15.6331733 C22.3675417,24.2569239 29.3799651,31.2723479 37.9992147,31.2723479 Z M37.9992147,2.25045682 C45.3822134,2.25045682 51.3894328,8.2546756 51.3894328,15.6331733 C51.3894328,23.016172 45.3822134,29.0218911 37.9992147,29.0218911 C30.620717,29.0218911 24.6179985,23.016172 24.6179985,15.6331733 C24.6179985,8.2546756 30.620717,2.25045682 37.9992147,2.25045682 Z" id="Combined-Shape" fill="#2CD992"></path>
                </g>
            </g>
        </g>
    </g>
</svg>